# xmcd
#
# Track frame offsets:
#	150
#	12932
#	25855
#	40481
#	55138
#	68445
#	84058
#	99397
#	113345
#	127987
#	142574
#	157709
#	172740
#	186126
#	200197
#
# Disc length: 2844 seconds
#
# Revision: 0
# Processed by: cddbd v1.5.2PL0 Copyright (c) Steve Scherf et al.
# Submitted via: audiograbber 1.83.01
#
DISCID=a50b1a0f
DTITLE=Jason Aldean - Rearview Town
DYEAR=2018
DGENRE=Country
TTITLE0=Dirt to Dust
TTITLE1=Set it Off
TTITLE2=Girl Like You
TTITLE3=You Make It Easy
TTITLE4=Gettin' Warmed Up
TTITLE5=Blacktop Gone
TTITLE6=Drowns the Whiskey (feat. Miranda Lambert)
TTITLE7=Rearview Town
TTITLE8=Love Me or Don't
TTITLE9=Like You Were Mine
TTITLE10=Better at Being Who I Am
TTITLE11=I'll Wait for You
TTITLE12=Ride All Night
TTITLE13=Up In Smoke
TTITLE14=High Noon Neon
EXTD=
EXTT0=
EXTT1=
EXTT2=
EXTT3=
EXTT4=
EXTT5=
EXTT6=
EXTT7=
EXTT8=
EXTT9=
EXTT10=
EXTT11=
EXTT12=
EXTT13=
EXTT14=
PLAYORDER=
